<svg xmlns="http://www.w3.org/2000/svg" viewBox="0 0 326.08 310.2"><defs><style>.cls-1{fill:#d1d0d1;}.cls-2,.cls-3{font-size:89.02px;font-family:Roboto-Black, Roboto;font-weight:800;}.cls-2{fill:#305ba7;}.cls-3{fill:#537cbe;}.cls-4,.cls-5,.cls-6,.cls-7{font-size:106.48px;font-family:GrindAndDeathDemo, GrindAndDeath_Demo;}.cls-4{fill:#d0b62a;}.cls-5{fill:#ffe44a;}.cls-6{fill:#479b3d;}.cls-7{fill:#7bbc66;}</style></defs><g id="Calque_2" data-name="Calque 2"><g id="Calque_1-2" data-name="Calque 1"><polygon class="cls-1" points="131.74 3.43 139.29 3.43 53.93 295.66 19.84 295.66 131.74 3.43"/><polygon class="cls-1" points="98.41 13.84 96.27 19.71 121.7 19.71 123.56 13.84 98.41 13.84"/><polygon class="cls-1" points="90.77 33.36 116.53 33.36 119.23 26.42 93.85 26.42 90.77 33.36"/><polygon class="cls-1" points="84.58 49.43 87.98 40.81 113.69 40.81 110.38 49.43 84.58 49.43"/><polygon class="cls-1" points="76.94 69.64 81.08 58.7 106.79 58.7 102.65 69.64 76.94 69.64"/><polygon class="cls-1" points="73.4 78.44 99.3 78.44 94.13 91.44 68.65 91.44 73.4 78.44"/><polygon class="cls-1" points="65.02 100.15 90.73 100.15 84.81 116.07 58.92 116.07 65.02 100.15"/><polygon class="cls-1" points="54.82 126.6 80.48 126.6 73.21 145.84 47.69 145.84 54.82 126.6"/><polygon class="cls-1" points="43.31 155.9 69.35 155.9 59.15 182.72 34.42 182.72 43.31 155.9"/><polygon class="cls-1" points="28.04 195.48 54.03 195.48 43.22 224.17 17.46 224.17 28.04 195.48"/><polygon class="cls-1" points="12.57 238.05 37.49 238.05 25.03 271.07 0 271.07 12.57 238.05"/><polygon class="cls-1" points="194.34 3.43 186.79 3.43 272.15 295.66 306.24 295.66 194.34 3.43"/><polygon class="cls-1" points="227.67 13.84 229.81 19.71 204.38 19.71 202.52 13.84 227.67 13.84"/><polygon class="cls-1" points="235.31 33.36 209.55 33.36 206.85 26.42 232.23 26.42 235.31 33.36"/><polygon class="cls-1" points="241.5 49.43 238.1 40.81 212.39 40.81 215.7 49.43 241.5 49.43"/><polygon class="cls-1" points="249.14 69.64 244.99 58.7 219.29 58.7 223.43 69.64 249.14 69.64"/><polygon class="cls-1" points="252.68 78.44 226.78 78.44 231.95 91.44 257.43 91.44 252.68 78.44"/><polygon class="cls-1" points="261.06 100.15 235.35 100.15 241.27 116.07 267.16 116.07 261.06 100.15"/><polygon class="cls-1" points="271.26 126.6 245.6 126.6 252.87 145.84 278.39 145.84 271.26 126.6"/><polygon class="cls-1" points="282.77 155.9 256.73 155.9 266.93 182.72 291.66 182.72 282.77 155.9"/><polygon class="cls-1" points="298.04 195.48 272.05 195.48 282.86 224.17 308.61 224.17 298.04 195.48"/><polygon class="cls-1" points="313.5 238.05 288.59 238.05 301.05 271.07 326.08 271.07 313.5 238.05"/><polygon class="cls-1" points="139.29 14.11 185.86 14.11 187.38 20.04 137.83 20.04 139.29 14.11"/><polygon class="cls-1" points="133.82 33.55 136.21 26.5 189.28 26.5 191.65 33.55 133.82 33.55"/><polygon class="cls-1" points="129.24 49.52 131.8 40.72 193.38 40.72 195.84 49.52 129.24 49.52"/><polygon class="cls-1" points="123.33 69.55 126.64 58.98 198.78 58.98 201.85 69.55 123.33 69.55"/><polygon class="cls-1" points="116.84 91.36 120.88 78.5 204.58 78.5 208.31 91.36 116.84 91.36"/><polygon class="cls-1" points="109.82 115.64 114.42 100.42 210.67 100.42 215.26 115.64 109.82 115.64"/><polygon class="cls-1" points="101.06 145.84 106.84 126.38 218.56 126.38 223.9 145.84 101.06 145.84"/><polygon class="cls-1" points="90.69 182.4 98.39 156.25 227.06 156.25 234.64 182.4 90.69 182.4"/><polygon class="cls-1" points="78.59 223.94 86.97 195.37 238.43 195.37 246.87 223.94 78.59 223.94"/><polygon class="cls-1" points="64.8 270.89 74.61 237.66 250.72 237.66 260.41 270.89 64.8 270.89"/><text class="cls-2" transform="translate(98.02 169.72)">VS</text><text class="cls-3" transform="translate(106.42 171.55)">VS</text><text class="cls-4" transform="translate(49.32 103.15)">RATP</text><text class="cls-5" transform="translate(57.23 103.15)">RATP</text><text class="cls-6" transform="translate(56.3 248.57)">MMI</text><text class="cls-7" transform="translate(62.35 256.74)">MMI</text></g></g></svg>