<?xml version="1.0" encoding="utf-8"?>
<!-- Generator: Adobe Illustrator 25.2.0, SVG Export Plug-In . SVG Version: 6.00 Build 0)  -->
<svg version="1.1" xmlns="http://www.w3.org/2000/svg" xmlns:xlink="http://www.w3.org/1999/xlink" x="0px" y="0px"
	 viewBox="0 0 1920 1080" style="enable-background:new 0 0 1920 1080;" xml:space="preserve">
<style type="text/css">
	.st0{fill:#D1D0D1;}
	.st1{fill:#71A898;}
	.st2{font-family:'GrindAndDeathDemo';}
	.st3{font-size:195.7964px;}
	.st4{fill:#71CC98;}
	.st5{fill:#6A2181;}
	.st6{fill:#6A4581;}
	.st7{fill:#305BA7;}
	.st8{font-family:'Arial-BoldMT';}
	.st9{font-size:163.6908px;}
	.st10{fill:#537CBE;}
	.st11{fill:#E9E8E8;}
	.st12{fill:#BE1622;}
	.st13{fill:#84B3D3;}
	.st14{fill:#010101;}
	.st15{fill:#36A9E1;stroke:#29235C;stroke-width:2;stroke-miterlimit:10;}
	.st16{fill:none;stroke:#29235C;stroke-width:3;stroke-miterlimit:10;}
	.st17{fill:#29235C;}
	.st18{fill:#2D2E83;}
	.st19{fill:#F6F6F6;}
	.st20{font-family:'ArialMT';}
	.st21{font-size:37.2034px;}
	.st22{fill:#27348B;}
	.st23{fill:#3C3C3B;}
	.st24{fill:#CA9E67;}
	.st25{fill:#706F6F;}
	.st26{fill:#010203;}
	.st27{fill:none;stroke:#FFFFFF;stroke-width:2;stroke-miterlimit:10;}
	.st28{fill:#FFFFFF;}
	.st29{fill:none;stroke:#FE120C;stroke-width:5;stroke-miterlimit:10;}
	.st30{fill:none;stroke:#010203;stroke-width:4;stroke-miterlimit:10;}
	.st31{fill:none;stroke:#010203;stroke-miterlimit:10;}
	.st32{fill:#FE120C;}
	.st33{fill:#F0F829;stroke:#000000;stroke-width:3;stroke-miterlimit:10;}
	.st34{fill:none;stroke:#FE120C;stroke-width:6;stroke-miterlimit:10;}
	.st35{fill:none;stroke:#000000;stroke-width:5;stroke-miterlimit:10;}
</style>
<g id="logo">
	<g>
		<g id="Calque_2_8_">
			<g id="Calque_1-2_8_">
				<polygon class="st0" points="885.66,11.17 903.08,11.17 706.14,548.52 627.49,548.52 				"/>
				<polygon class="st0" points="808.76,30.31 803.82,41.1 862.49,41.1 866.78,30.31 				"/>
				<polygon class="st0" points="791.13,66.2 850.57,66.2 856.79,53.44 798.24,53.44 				"/>
				<polygon class="st0" points="776.85,95.75 784.7,79.9 844.01,79.9 836.38,95.75 				"/>
				<polygon class="st0" points="759.23,132.92 768.78,112.8 828.09,112.8 818.54,132.92 				"/>
				<polygon class="st0" points="751.06,149.1 810.81,149.1 798.89,173 740.1,173 				"/>
				<polygon class="st0" points="731.73,189.02 791.04,189.02 777.38,218.29 717.65,218.29 				"/>
				<polygon class="st0" points="708.19,237.65 767.39,237.65 750.62,273.03 691.74,273.03 				"/>
				<polygon class="st0" points="681.64,291.53 741.72,291.53 718.18,340.85 661.13,340.85 				"/>
				<polygon class="st0" points="646.41,364.31 706.37,364.31 681.43,417.07 622,417.07 				"/>
				<polygon class="st0" points="610.72,442.59 668.21,442.59 639.46,503.31 581.72,503.31 				"/>
				<polygon class="st0" points="1030.08,11.17 1012.66,11.17 1209.6,548.52 1288.25,548.52 				"/>
				<polygon class="st0" points="1106.98,30.31 1111.92,41.1 1053.25,41.1 1048.95,30.31 				"/>
				<polygon class="st0" points="1124.6,66.2 1065.17,66.2 1058.94,53.44 1117.5,53.44 				"/>
				<polygon class="st0" points="1138.89,95.75 1131.04,79.9 1071.73,79.9 1079.36,95.75 				"/>
				<polygon class="st0" points="1156.51,132.92 1146.94,112.8 1087.64,112.8 1097.2,132.92 				"/>
				<polygon class="st0" points="1164.68,149.1 1104.92,149.1 1116.85,173 1175.64,173 				"/>
				<polygon class="st0" points="1184.01,189.02 1124.7,189.02 1138.35,218.29 1198.09,218.29 				"/>
				<polygon class="st0" points="1207.54,237.65 1148.34,237.65 1165.12,273.03 1223.99,273.03 				"/>
				<polygon class="st0" points="1234.1,291.53 1174.02,291.53 1197.56,340.85 1254.61,340.85 				"/>
				<polygon class="st0" points="1269.33,364.31 1209.37,364.31 1234.31,417.07 1293.72,417.07 				"/>
				<polygon class="st0" points="1305,442.59 1247.53,442.59 1276.27,503.31 1334.02,503.31 				"/>
				<polygon class="st0" points="903.08,30.81 1010.52,30.81 1014.02,41.71 899.71,41.71 				"/>
				<polygon class="st0" points="890.46,66.55 895.97,53.59 1018.41,53.59 1023.88,66.55 				"/>
				<polygon class="st0" points="879.89,95.92 885.79,79.74 1027.87,79.74 1033.54,95.92 				"/>
				<polygon class="st0" points="866.25,132.75 873.89,113.31 1040.33,113.31 1047.41,132.75 				"/>
				<polygon class="st0" points="851.28,172.86 860.6,149.21 1053.71,149.21 1062.31,172.86 				"/>
				<polygon class="st0" points="835.08,217.5 845.7,189.51 1067.76,189.51 1078.35,217.5 				"/>
				<polygon class="st0" points="814.87,273.03 828.21,237.25 1085.96,237.25 1098.28,273.03 				"/>
				<polygon class="st0" points="790.95,340.26 808.71,292.18 1105.57,292.18 1123.06,340.26 				"/>
				<polygon class="st0" points="763.03,416.64 782.37,364.11 1131.8,364.11 1151.27,416.64 				"/>
				<polygon class="st0" points="731.22,502.98 753.85,441.87 1160.16,441.87 1182.51,502.98 				"/>
				<text transform="matrix(1.2547 0 0 1 695.5036 194.532)" class="st1 st2 st3">RATP</text>
				<text transform="matrix(1.2547 0 0 1 711.6736 200.9778)" class="st4 st2 st3">RATP</text>
				<text transform="matrix(1.2547 0 0 1 711.6052 461.9334)" class="st5 st2 st3">MMI</text>
				<text transform="matrix(1.2547 0 0 1 720.6522 477.4246)" class="st6 st2 st3">MMI</text>
				<text transform="matrix(1.2547 0 0 1 807.8576 316.9412)" class="st7 st8 st9">VS</text>
				<text transform="matrix(1.2547 0 0 1 827.2404 320.3065)" class="st10 st8 st9">VS</text>
			</g>
		</g>
	</g>
</g>
<g id="maison">
	<g>
		<g id="Calque_2_3_">
			<g id="Calque_1-2_2_">
				<rect x="14.33" y="879.36" class="st11" width="245.03" height="189.55"/>
				<polygon class="st12" points="137.53,779.93 14.33,879.36 259.36,879.36 				"/>
				<rect x="91.61" y="963.74" class="st13" width="90.48" height="105.18"/>
				<rect x="259.36" y="932.82" class="st11" width="121.98" height="136.09"/>
				<rect x="259.36" y="879.36" class="st12" width="121.98" height="53.46"/>
				<path class="st14" d="M388.96,879.36c0-3.35-3.41-6.07-7.62-6.07H262.58L143,775.69c-1.44-1.16-3.39-1.81-5.44-1.83l0,0
					c-2.03,0-3.97,0.65-5.4,1.8l-50.36,40.61v-20.63c0-3.35-3.41-6.07-7.62-6.07s-7.62,2.72-7.62,6.07l0,0v32.92L8.89,875.09l0,0
					c-1.39,1.15-2.18,2.68-2.18,4.27v189.55c0,3.35,3.41,6.07,7.62,6.07h367.01c4.21,0,7.62-2.72,7.62-6.07V879.36z M373.72,926.75
					H266.98v-41.26h106.75V926.75z M137.53,788.6l103.75,84.7H32.59L137.53,788.6z M251.74,1062.84H189.7v-99.11
					c0-3.35-3.41-6.07-7.62-6.07h0H91.75c-4.21,0-7.62,2.72-7.62,6.07l0,0v99.11H21.95V885.44h229.8V1062.84z M99.15,1062.84v-93.04
					h75.32v93.04H99.15z M373.65,1062.84H266.98V938.89h106.75L373.65,1062.84z"/>
			</g>
		</g>
	</g>
</g>
<g id="Calque_4">
	<g>
		<g id="Calque_2_6_">
			<g id="Calque_1-2_6_">
				<polyline class="st15" points="1653.49,797.32 1873.94,797.32 1873.94,1054.31 1503.72,1054.31 1503.72,826.81 				"/>
				<line class="st16" x1="1507.8" y1="841.4" x2="1556.82" y2="917.06"/>
				<rect x="1310.5" y="841.4" class="st17" width="197.3" height="220.7"/>
				<rect x="1397.03" y="889.61" class="st18" width="183.96" height="171.45"/>
				<rect x="1677.54" y="902.56" class="st17" width="227.19" height="167.15"/>
				<text transform="matrix(1.1794 0 0 1 1457.7097 930.8011)" class="st19 st20 st21">IUT</text>
				<line class="st16" x1="1631.5" y1="1054.43" x2="1631.5" y2="975.46"/>
				<line class="st16" x1="1565.65" y1="826.43" x2="1645.64" y2="938.78"/>
				<line class="st16" x1="1715.37" y1="810.76" x2="1791.12" y2="917.2"/>
				<line class="st16" x1="1642.39" y1="825.9" x2="1705.55" y2="914.6"/>
				<rect x="1580.99" y="931.21" class="st22" width="101.44" height="44.12"/>
				<line class="st16" x1="1786.88" y1="797.32" x2="1862.63" y2="903.74"/>
				<path class="st23" d="M1495.63,842.89c-4.86-29.46,80.73-63.88,191.21-76.91s203.92,0.34,208.85,29.8"/>
				<line class="st16" x1="1873.94" y1="873.65" x2="1508.25" y2="873.65"/>
			</g>
		</g>
	</g>
</g>
<g id="Calque_5">
	<g>
		<g id="Calque_2_5_">
			<g id="Calque_1-2_4_">
				<path class="st24" d="M649.65,882.63c1.52-0.88,2.58-2.55,2.1-5.67c0,0-1.05-10.05-10.62-9c0,0-2.99-6.7-21.8-4.25
					c-1.72-1.31-3.94-2.14-6.3-2.34c0.63,0.97,1.02,2.03,1.17,3.12c-2.64,0.13-18.8,1.46-15.97,14.79c0,0,0.26,2.6,2.04,3.91V886
					c-1.08,0.99-1.68,2.26-1.68,3.57c0.08,2.59,2.31,4.83,5.46,5.48c4,5.43,12.03,8.94,20.93,8.94c8.9,0,16.95-3.52,20.94-8.97
					c3.12-0.66,5.31-2.89,5.38-5.46c0.01-1.31-0.58-2.57-1.64-3.57V882.63L649.65,882.63z"/>
				<path class="st14" d="M649.65,907.42h-49.75c-13.78,0-24.85,9.08-24.85,20.35v49.68c-0.08,3.88,3.8,7.08,8.67,7.14
					c0.02,0,0.04,0,0.06,0c4.8,0.02,8.72-3.07,8.74-6.9c0-0.08,0-0.16,0-0.25v-45.64c0-1.11,1.13-2.01,2.52-2.01
					c1.39,0,2.52,0.9,2.52,2.01c0,0,0,0,0,0v123.17c0,6.1,5.54,11.11,12.43,11.11c6.89,0,12.42-5.02,12.42-11.11v-70.24
					c-0.09-1.11,0.97-2.07,2.36-2.14c1.4-0.07,2.6,0.77,2.69,1.88c0.01,0.09,0.01,0.17,0,0.26v70.24c0,6.1,5.53,11.11,12.42,11.11
					c6.89,0,12.43-5.02,12.43-11.11V931.82c0-1.11,1.13-2.01,2.52-2.01c1.39,0,2.52,0.9,2.52,2.01v45.71
					c-0.09,3.87,3.78,7.07,8.64,7.14c0.03,0,0.06,0,0.09,0c4.8,0.03,8.73-3.04,8.78-6.87c0-0.09,0-0.18,0-0.27v-49.76
					C674.45,916.5,663.09,907.42,649.65,907.42z"/>
				<g id="Glasses_1_">
					<path class="st25" d="M633.5,885.44c-0.3-0.03-0.57,0.14-0.62,0.38c-0.01,0.24,0.22,0.43,0.51,0.44c0,0,0.01,0,0.01,0
						c1.33-0.08,2.48,0.71,2.58,1.77c0,0.02,0,0.04,0,0.06c0.06,0.21,0.3,0.36,0.57,0.35h0.07c0.29-0.01,0.51-0.21,0.5-0.44
						c0-0.01,0-0.01,0-0.02C636.97,886.49,635.37,885.37,633.5,885.44z"/>
					<path class="st25" d="M615.83,885.44c-0.3-0.03-0.57,0.14-0.62,0.38c-0.01,0.24,0.22,0.43,0.51,0.44c0,0,0.01,0,0.01,0
						c1.32-0.06,2.45,0.74,2.53,1.8c0,0.01,0,0.02,0,0.03c0.06,0.21,0.3,0.36,0.57,0.35h0.08c0.29-0.02,0.51-0.22,0.48-0.45
						c0,0,0-0.01,0-0.01C619.25,886.5,617.68,885.39,615.83,885.44z"/>
					<path class="st25" d="M642.46,886.49h-2.85c-0.93-2.05-3.42-3.39-6.16-3.31c-2.33-0.04-4.51,0.92-5.72,2.51
						c-0.96-1.37-3.14-1.87-4.86-1.1c-0.58,0.26-1.06,0.64-1.38,1.1c-1.2-1.59-3.38-2.55-5.72-2.51c-2.73-0.08-5.21,1.26-6.15,3.31
						h-2.79c-0.29,0-0.53,0.19-0.53,0.42c0,0.23,0.24,0.42,0.53,0.42h2.56c-0.01,0.15-0.01,0.3,0,0.44c0,2.51,2.88,4.57,6.41,4.57
						s6.42-2.05,6.42-4.57c0-0.25-0.04-0.51-0.09-0.75c0.04-0.05,0.07-0.11,0.08-0.17c0.09-1.07,1.25-1.88,2.59-1.81
						c1.22,0.06,2.19,0.84,2.27,1.81c0.01,0.06,0.04,0.11,0.08,0.16c-0.06,0.25-0.09,0.51-0.09,0.76c0,2.51,2.88,4.57,6.41,4.57
						s6.41-2.05,6.41-4.57c0.01-0.15,0.01-0.3,0-0.44h2.63c0.29,0,0.53-0.19,0.53-0.42c0-0.23-0.24-0.42-0.53-0.42H642.46z
						 M615.78,891.51c-2.75,0.11-5.09-1.56-5.25-3.75c0.16-2.19,2.51-3.86,5.25-3.75c2.75-0.11,5.09,1.56,5.25,3.75
						C620.87,889.95,618.53,891.62,615.78,891.51z M633.45,891.51c-2.75,0.11-5.09-1.56-5.25-3.75c0-2.31,2.35-4.19,5.25-4.19
						s5.25,1.87,5.25,4.19C638.54,889.95,636.2,891.62,633.45,891.51z"/>
				</g>
				<path class="st14" d="M643.66,891.74c-0.36,0-0.72-0.06-1.05-0.18c-3.45,7.78-14.16,11.86-23.93,9.11
					c-5.34-1.5-9.55-4.85-11.43-9.11c-0.33,0.12-0.69,0.19-1.05,0.19c-1.63-0.09-2.86-1.21-2.75-2.51c-0.1-1.3,1.13-2.42,2.75-2.51
					h0.08c0.02-0.64,0.08-1.28,0.18-1.92c1.86-0.42,3.95-2.07,5.25-4.38c0.38-0.66,0.69-1.35,0.91-2.05c0.8,1.4,2.3,2.46,4.14,2.91
					c0,0-0.21-4.56,2.25-5.53c0,0,2.66,2.45,2.25,3.91c0,0,6.3-1.67,7.64-4.3c-0.32,0.68-0.98,2.51,0.34,3.98
					c0,0,1.84-3.1,3.48-3.42c1.38,2.06,3.36,3.82,5.77,5.15c1.36,2.01,3.27,3.41,4.98,3.77c0.08,0.7,0.14,1.36,0.14,1.92l0,0
					c1.63,0.09,2.85,1.21,2.75,2.51C646.43,890.54,645.25,891.63,643.66,891.74z"/>
			</g>
		</g>
	</g>
	<polygon class="st26" points="328.09,380.26 177.31,442.04 139.3,383.11 290.09,321.34 	"/>
	<polygon class="st27" points="290.52,352.54 199.56,389.81 192.53,378.91 283.5,341.65 	"/>
	<g>
		<g>
			<path class="st28" d="M180.7,416.14c6.22-2.55,12.43-5.09,18.65-7.64c9.91-4.06,19.82-8.12,29.74-12.18
				c2.28-0.93,4.56-1.87,6.85-2.8c1.47-0.6,0.83-3.02-0.66-2.41c-6.22,2.55-12.43,5.09-18.65,7.64
				c-9.91,4.06-19.82,8.12-29.74,12.18c-2.28,0.93-4.56,1.87-6.85,2.8C178.56,414.34,179.21,416.76,180.7,416.14L180.7,416.14z"/>
		</g>
	</g>
	<g>
		<g>
			<path class="st28" d="M187.48,425.89c6.22-2.55,12.43-5.09,18.65-7.64c9.91-4.06,19.82-8.12,29.74-12.18
				c2.28-0.93,4.56-1.87,6.85-2.8c1.47-0.6,0.83-3.02-0.66-2.41c-6.22,2.55-12.43,5.09-18.65,7.64
				c-9.91,4.06-19.82,8.12-29.74,12.18c-2.28,0.93-4.56,1.87-6.85,2.8C185.35,424.09,185.99,426.51,187.48,425.89L187.48,425.89z"/>
		</g>
	</g>
	<g>
		<g>
			<path class="st28" d="M268.19,392.83c4.49-1.84,8.98-3.68,13.46-5.52c7.16-2.93,14.31-5.86,21.47-8.8
				c1.65-0.68,3.3-1.35,4.94-2.03c1.47-0.6,0.83-3.02-0.66-2.41c-4.49,1.84-8.98,3.68-13.46,5.52c-7.16,2.93-14.31,5.86-21.47,8.8
				c-1.65,0.68-3.3,1.35-4.94,2.03C266.06,391.02,266.7,393.44,268.19,392.83L268.19,392.83z"/>
		</g>
	</g>
	<g>
		<g>
			<path class="st28" d="M261.8,382.92c4.49-1.84,8.98-3.68,13.46-5.52c7.16-2.93,14.31-5.86,21.47-8.8
				c1.65-0.68,3.3-1.35,4.94-2.03c1.47-0.6,0.83-3.02-0.66-2.41c-4.49,1.84-8.98,3.68-13.46,5.52c-7.16,2.93-14.31,5.86-21.47,8.8
				c-1.65,0.68-3.3,1.35-4.94,2.03C259.67,381.11,260.31,383.53,261.8,382.92L261.8,382.92z"/>
		</g>
	</g>
	<g>
		<path class="st28" d="M164.19,394.38l11.55-4.73l1.2,1.87l-11.55,4.73L164.19,394.38z M166.25,397.58l11.55-4.73l1.2,1.87
			l-11.55,4.73L166.25,397.58z M177.86,403.2c-1.59-0.1-3.07-0.57-4.43-1.39c-1.36-0.82-2.51-1.96-3.44-3.4l-3.43-5.32
			c-0.93-1.44-1.42-2.84-1.46-4.21c-0.05-1.36,0.34-2.59,1.16-3.69c0.82-1.09,2.02-1.97,3.6-2.62c1.35-0.55,2.78-0.81,4.29-0.78
			c1.51,0.03,2.95,0.36,4.32,0.98c1.37,0.62,2.52,1.5,3.45,2.65l-4.79,1.96c-0.52-0.45-1.07-0.81-1.66-1.07s-1.18-0.41-1.75-0.45
			c-0.58-0.04-1.1,0.04-1.58,0.24c-0.67,0.27-1.16,0.67-1.48,1.19c-0.32,0.52-0.43,1.12-0.35,1.79c0.09,0.68,0.37,1.39,0.84,2.13
			l3.43,5.32c0.48,0.74,1.03,1.33,1.67,1.78s1.32,0.72,2.03,0.81c0.71,0.1,1.4,0.01,2.07-0.27c0.48-0.2,0.87-0.48,1.18-0.86
			s0.51-0.81,0.62-1.31c0.1-0.5,0.09-1.02-0.03-1.56l4.79-1.96c0.59,1.22,0.79,2.43,0.6,3.64c-0.19,1.21-0.71,2.3-1.57,3.27
			c-0.86,0.98-1.96,1.74-3.31,2.29C181.03,403.03,179.45,403.3,177.86,403.2z"/>
	</g>
	<line class="st29" x1="166.25" y1="371.3" x2="301.21" y2="392.48"/>
	<polygon class="st30" points="328.73,381.25 177.94,443.02 138.91,382.5 289.69,320.73 	"/>
	<path class="st31" d="M1492.48,324.03l-31.55,38.25c-1.88,2.28-0.87,5.36,2.18,6.61l178.3,73.17c3.01,1.24,6.7,0.15,7.98-2.35
		l21.52-42.17c1.12-2.2-0.05-4.72-2.7-5.81l-168.26-69.24C1497.32,321.39,1494.1,322.07,1492.48,324.03z"/>
	<polygon points="1497.6,326.31 1666.52,395.82 1644.57,438.47 1465.72,364.87 	"/>
	<g>
		<path class="st28" d="M1557.19,372.11l17.32,7.13l-1.81,2.8l-17.32-7.13L1557.19,372.11z M1554.08,376.91l17.32,7.13l-1.81,2.8
			l-17.32-7.13L1554.08,376.91z M1555.57,393.11c-1.23-1.64-1.8-3.48-1.73-5.53c0.08-2.05,0.81-4.15,2.21-6.31l5.17-7.98
			c1.4-2.16,3.12-3.86,5.17-5.09c2.05-1.23,4.27-1.93,6.66-2.09c2.39-0.16,4.77,0.25,7.15,1.23c2.02,0.83,3.67,2,4.93,3.5
			s2.02,3.19,2.25,5.06c0.24,1.87-0.11,3.76-1.05,5.67l-7.18-2.95c0.24-0.9,0.31-1.75,0.19-2.56c-0.11-0.81-0.39-1.51-0.83-2.1
			s-1.02-1.04-1.74-1.34c-1-0.41-2.04-0.55-3.11-0.4c-1.07,0.14-2.08,0.55-3.05,1.23s-1.81,1.57-2.53,2.67l-5.17,7.98
			c-0.72,1.11-1.14,2.17-1.26,3.18c-0.13,1.01,0.05,1.91,0.52,2.68c0.47,0.78,1.21,1.37,2.21,1.78c0.72,0.3,1.5,0.43,2.34,0.41
			c0.84-0.02,1.69-0.2,2.54-0.54c0.85-0.33,1.64-0.8,2.37-1.4l7.18,2.95c-1.36,1.64-3.04,2.89-5.06,3.76s-4.14,1.31-6.39,1.32
			c-2.24,0.01-4.38-0.4-6.4-1.23C1558.6,396.05,1556.8,394.74,1555.57,393.11z"/>
	</g>
	<path d="M1235.43,645.12l34.43-30.2l75,54.32c4.54,3.29,5,8.77,1.04,12.25l0,0c-3.97,3.48-10.86,3.63-15.4,0.35l-56-40.56
		l-4.89,4.29l55.54,40.22c4.8,3.47,5.29,9.27,1.09,12.95l0,0c-4.19,3.68-11.48,3.84-16.27,0.37L1235.43,645.12z"/>
	<path d="M1202.18,621.05l29.86,21.63l34.42-30.22l-21.22-15.37c-0.5-0.36-0.07-1.02,0.59-0.9l32.47,6.04
		c3.58,0.67,7.22-0.9,8.49-3.66l0,0c1.43-3.11-0.69-6.54-4.65-7.53l-61.89-15.54c-4.5-1.13-9.4-0.07-12.57,2.71l-23.09,20.25
		c-3.52,3.09-4.91,7.37-3.71,11.43l5.47,18.48c1.32,4.46,1.22,9.12-0.28,13.54l-6.02,17.68c-1.05,3.09,1.16,6.29,5,7.23l0,0
		c3.9,0.95,8.03-0.78,9.27-3.87l6.09-15.27c2.07-5.19,2.87-10.66,2.34-16.09l-1.48-10.16
		C1201.21,621.03,1201.81,620.78,1202.18,621.05z"/>
	<path d="M1149.58,585.72c0,0-0.29-6.95,7.56-13.36c4.61-3.77,16.75-14.69,19.47-17.15c0.3-0.28,0.83-0.29,1.17-0.04l8.25,5.98
		c3.39,2.45,6.01,5.57,7.16,9.11c1.73,5.32,0.81,12.52-13.17,16.89c-0.66,0.21-1.41-0.11-1.58-0.66l-2.31-7.41
		c-0.07-0.21-0.44-0.2-0.49,0.02l-1.64,7.84c-0.12,0.59-0.78,1-1.53,0.94c-2.9-0.2-9.95-1.26-14.64-6.61
		c-0.42-0.47-1.21-0.63-1.81-0.31C1154.85,581.59,1152.74,582.95,1149.58,585.72z"/>
	<path class="st32" d="M1133.97,574.48l15.11-0.29c0.31-0.01,0.61-0.11,0.82-0.3l23.53-20.64c0.43-0.37,0.39-0.95-0.08-1.29
		l-8.09-5.86c-0.47-0.34-1.2-0.31-1.62,0.06l-30.55,26.79C1132.42,573.55,1132.96,574.5,1133.97,574.48z"/>
	<path class="st32" d="M1183.83,599.11l23.33-20.6c18.27-16.13,46.19-22.95,72.66-17.77l81.91,16.05c0.62,0.12,0.72,0.79,0.15,1.02
		c-10.98,4.37-71.19,30.37-60.11,70.69c0.13,0.46-0.46,0.82-0.98,0.61l-116.77-49.15C1183.62,599.79,1183.53,599.38,1183.83,599.11z
		"/>
</g>
<g id="Calque_6">
	<polygon class="st26" points="1768.99,14.83 1869.61,21.45 1900.78,116.32 1800.37,110.67 	"/>
	<path class="st26" d="M1766.28,15.26l2.16,6.29c0,0-14.1,5.65-18.15,17.48C1750.28,39.03,1741.38,27.63,1766.28,15.26z"/>
	<path class="st26" d="M1769.33,26.42c0,0-1.08,0.51-2.66,1.53c-10.44,6.71-14.72,17.82-11.14,28.12l20.28,58.32
		c0,0,5.36-9.68,18.12-13.71L1769.33,26.42z"/>
	<path class="st26" d="M1795.24,104.82c0,0-24.8,9.12-12.45,28.8c0,0-2.73-12.1,14.78-22.1L1795.24,104.82z"/>
	<path class="st26" d="M1802.48,113.79c0,0-16.7,5.89-14.78,20.17l100.61,6.53l-2.53-4.52l0.1-2.98l-7.39-2.18l15.39-2.5l-4.35-3.63
		l8-5L1802.48,113.79z"/>
	<ellipse class="st28" cx="1817.32" cy="51.75" rx="6.79" ry="5.41"/>
	<path class="st28" d="M1804.75,59.59l-6.64-6.19c-0.95-0.89-2.6-1.04-3.78-0.34v0c-1.29,0.76-1.51,2.24-0.47,3.22l8.64,8.14
		c0.5,0.47,1.26,0.73,2.03,0.69l9.55-0.5c0.72-0.04,1.41,0.19,1.88,0.63l11.23,10.36c0.69,0.63,1.28,1.33,1.76,2.07l4.5,6.84
		c0.39,0.59,0.38,1.3-0.03,1.89l-6.87,9.81c-0.99,1.41,0.08,3.17,2.08,3.42l0,0c1.19,0.15,2.37-0.29,2.98-1.12l8.36-11.4
		c0.73-1,0.88-2.2,0.42-3.29l-3.52-8.3c-0.08-0.18,0.17-0.34,0.38-0.24l8.28,4.01c0.78,0.38,1.23,1.06,1.19,1.79l-0.6,9.12
		c-0.09,1.36,1.2,2.53,2.91,2.63l0,0c1.78,0.1,3.31-1,3.37-2.42l0.44-11.53c0.04-1.16-0.58-2.27-1.7-3.02l-13.05-8.71
		c-0.7-0.47-1.35-0.98-1.95-1.53l-4.72-4.37c-0.21-0.19-0.1-0.49,0.21-0.57l3.47-0.85c0.72-0.18,1.49-0.09,2.12,0.24l9.28,4.83
		c1.42,0.74,3.33,0.4,4.21-0.76v0c0.84-1.1,0.44-2.54-0.91-3.25l-11.09-5.86c-1.23-0.65-2.78-0.8-4.17-0.39l-12.69,3.69
		c-1.97,0.57-4.03,0.95-6.12,1.12l-9.18,0.75C1805.86,60.21,1805.19,60,1804.75,59.59z"/>
	<polygon class="st28" points="1829.34,51.45 1830.26,38.71 1836.48,44.45 1839.48,33.68 1844.09,41.7 1855.18,31.25 1853.31,43.56 
		1864.92,40.05 1857.24,49.99 1870.62,49.02 1861.89,56.8 1868.74,58.26 1855.06,64.77 1861.74,59.41 1857.76,58.21 1863.8,51.68 
		1854.09,51.37 1857.97,44.39 1849.92,46.45 1850.97,38.65 1844.04,44.63 1840.36,39.35 1837.69,47.19 1831.29,42.23 	"/>
	<path class="st33" d="M23.09,119.88L99.11,14.25c3.27-4.54,11.48-4.55,14.77-0.02l76.89,105.84c3.29,4.53-0.82,10.21-7.39,10.2
		l-152.92-0.21C23.92,130.04,19.83,124.4,23.09,119.88z"/>
	<polygon points="97.79,41.63 114.59,41.63 96.35,79.13 124.03,65.67 103.71,123.89 107.47,80.08 80.59,93.03 	"/>
	<line class="st34" x1="78.46" y1="42.95" x2="143.63" y2="130.21"/>
	<path class="st35" d="M23.09,119.88L99.11,14.25c3.27-4.54,11.48-4.55,14.77-0.02l76.89,105.84c3.29,4.53-0.82,10.21-7.39,10.2
		l-152.92-0.21C23.92,130.04,19.83,124.4,23.09,119.88z"/>
</g>
<g id="Calque_7">
	<path d="M956.36,979.58h49.83v81.94c0,4.96-4.65,8.98-10.39,8.98l0,0c-5.74,0-10.39-4.02-10.39-8.98v-61.19h-7.08v60.68
		c0,5.24-4.92,9.49-10.98,9.49l0,0c-6.07,0-10.98-4.25-10.98-9.49V979.58z"/>
	<path d="M956.35,943.27v32.63l49.85-0.02v-23.19c0-0.55,0.88-0.74,1.2-0.26l15.8,23.55c1.74,2.6,5.54,3.71,8.86,2.59h0
		c3.74-1.27,5.46-4.87,3.76-7.92L1009.35,923c-1.92-3.46-6.09-5.68-10.68-5.68h-33.42c-5.1,0-9.87,2.09-12.76,5.58l-13.12,15.89
		c-3.17,3.84-7.44,6.95-12.42,9.07l-19.92,8.45c-3.48,1.48-4.92,4.98-3.26,7.92l0,0c1.69,2.98,5.96,4.28,9.57,2.91l17.79-6.77
		c6.05-2.3,11.51-5.56,16.07-9.58l8.22-7.82C955.74,942.67,956.35,942.86,956.35,943.27z"/>
	<path d="M953.85,887.69c0,0,6.1-4.92,17.03-4.59c6.43,0.19,24.24,0,28.24-0.05c0.45-0.01,0.8,0.3,0.8,0.67v9.02
		c0,3.7-1.11,7.4-3.55,10.5c-3.68,4.67-10.79,9.03-23.89,3.64c-0.62-0.25-0.83-0.92-0.44-1.4l5.19-6.44
		c0.15-0.18-0.11-0.4-0.33-0.28l-8.16,4.37c-0.61,0.33-1.41,0.21-1.85-0.27c-1.71-1.88-5.37-6.81-3.61-13.27
		c0.16-0.57-0.22-1.15-0.91-1.29C961.03,888.03,958.42,887.69,953.85,887.69z"/>
	<path d="M953.79,870.68l10.15,8.84c0.21,0.18,0.5,0.29,0.81,0.29h34.06c0.62,0,1.12-0.42,1.12-0.93v-8.84
		c0-0.51-0.5-0.93-1.12-0.93H954.6C953.62,869.11,953.11,870.09,953.79,870.68z"/>
</g>
</svg>
