<svg xmlns="http://www.w3.org/2000/svg" viewBox="0 0 143.29 47.06"><defs><style>.cls-1{fill:none;stroke:#000;stroke-miterlimit:10;}.cls-2{fill:#1d1d1b;}.cls-3{fill:#fff;}</style></defs><g id="Calque_2" data-name="Calque 2"><g id="Calque_2-2" data-name="Calque 2"><path class="cls-1" d="M4.56,4l-4,38.32a3.87,3.87,0,0,0,3.85,4.28l134.56-.15a3.87,3.87,0,0,0,3.84-4.22L139.32,4A3.88,3.88,0,0,0,135.46.5H8.41A3.87,3.87,0,0,0,4.56,4Z"/><polygon class="cls-2" points="8.5 4.09 136.04 4.09 139.43 42.75 4.38 42.75 8.5 4.09"/><path class="cls-3" d="M61.7,20H74.78v2.65H61.7Zm0,4.55H74.78v2.65H61.7Zm7.15,11.65a8.32,8.32,0,0,1-3.17-3.6,12.4,12.4,0,0,1-1.11-5.4V19.65a12.4,12.4,0,0,1,1.11-5.4,8.41,8.41,0,0,1,3.17-3.61,9.17,9.17,0,0,1,9-.18,9.19,9.19,0,0,1,3.3,3.09,10.2,10.2,0,0,1,1.56,4.56H77.32a6.66,6.66,0,0,0-.87-2,4.53,4.53,0,0,0-1.31-1.31,2.87,2.87,0,0,0-1.55-.47,3.23,3.23,0,0,0-2,.66,4.16,4.16,0,0,0-1.35,1.85,7.71,7.71,0,0,0-.47,2.78v7.56A7.62,7.62,0,0,0,70.23,30a4.27,4.27,0,0,0,1.35,1.85,3.29,3.29,0,0,0,2,.65,3.09,3.09,0,0,0,1.55-.42,4.16,4.16,0,0,0,1.31-1.18,5.63,5.63,0,0,0,.87-1.77h5.42a9.52,9.52,0,0,1-1.56,4.37,9.12,9.12,0,0,1-7.59,4A8.75,8.75,0,0,1,68.85,36.21Z"/></g></g></svg>