<svg xmlns="http://www.w3.org/2000/svg" viewBox="0 0 81.79 148.64"><defs><style>.cls-1{fill:#1d1d1b;}</style></defs><g id="Calque_2" data-name="Calque 2"><g id="Calque_2-2" data-name="Calque 2"><path class="cls-1" d="M32.67,81.53H63.22V142a6.5,6.5,0,0,1-6.37,6.63h0A6.5,6.5,0,0,1,50.48,142V96.85H46.14v44.78a6.88,6.88,0,0,1-6.74,7h0a6.88,6.88,0,0,1-6.73-7Z"/><path class="cls-1" d="M32.66,54.73V78.81l30.56,0V61.68a.4.4,0,0,1,.74-.19l9.69,17.38a4.33,4.33,0,0,0,5.43,1.91h0a4.35,4.35,0,0,0,2.31-5.84L65.16,39.77a7.22,7.22,0,0,0-6.55-4.18H38.12a9.46,9.46,0,0,0-7.82,4.12l-8,11.72a20.56,20.56,0,0,1-7.62,6.69L2.42,64.36a4.45,4.45,0,0,0-2,5.85h0a4.44,4.44,0,0,0,5.87,2.14l10.91-5a31.54,31.54,0,0,0,9.85-7.07l5-5.77A.32.32,0,0,1,32.66,54.73Z"/><path class="cls-1" d="M31.13,13.71a14.86,14.86,0,0,1,10.44-3.39c3.94.14,14.87,0,17.32,0a.49.49,0,0,1,.49.5v6.65a14.19,14.19,0,0,1-2.17,7.75c-2.26,3.44-6.62,6.66-14.65,2.68a.71.71,0,0,1-.27-1l3.18-4.75a.15.15,0,0,0-.21-.21l-5,3.23a.85.85,0,0,1-1.13-.2,11.94,11.94,0,0,1-2.22-9.79.77.77,0,0,0-.55-.95A23.1,23.1,0,0,0,31.13,13.71Z"/><path class="cls-1" d="M31.09,1.16l6.23,6.52a.67.67,0,0,0,.49.21H58.7a.68.68,0,0,0,.68-.68V.69A.69.69,0,0,0,58.7,0H31.59A.69.69,0,0,0,31.09,1.16Z"/></g></g></svg>