<svg xmlns="http://www.w3.org/2000/svg" viewBox="0 0 98.76 233.2"><defs><style>.cls-1{fill:#010101;}.cls-2{fill:#432918;}.cls-3{fill:#be1622;}</style></defs><g id="Calque_2" data-name="Calque 2"><g id="Calque_1-2" data-name="Calque 1"><path class="cls-1" d="M49,0A19.58,19.58,0,0,1,68.69,19.42a19.7,19.7,0,0,1-39.39,0A19.58,19.58,0,0,1,49,0ZM73.78,43.85H24.59A24.35,24.35,0,0,0,0,68.1v59.3a8.55,8.55,0,0,0,8.65,8.52,8.42,8.42,0,0,0,8.64-8.52V72.93a2.5,2.5,0,0,1,5,0v147c0,7.29,5.47,13.26,12.3,13.26s12.29-6,12.29-13.26V136.11a2.5,2.5,0,0,1,5,0v83.83c0,7.29,5.47,13.26,12.3,13.26s12.29-6,12.29-13.26v-147a2.5,2.5,0,0,1,5,0v54.56A8.56,8.56,0,0,0,90.11,136a8.44,8.44,0,0,0,8.65-8.53V68.1A25.12,25.12,0,0,0,73.78,43.85Z"/><path class="cls-2" d="M68.36,25c0-.67,0-1.34,0-2a.86.86,0,0,0-1.68,0c0,10.51-7,11.86-13.11,11.86H52.3a3.35,3.35,0,0,0-6.62,0l-1.28,0c-6.2,0-12.59-1.42-13.1-11.89a.8.8,0,0,0-.87-.67.77.77,0,0,0-.81.72h0c.05,1.13.07,2.24.08,3.31.05,4.7.1,8.76,3.61,11,4.25,2.74,10.6,5.68,15.67,5.68s11.43-2.94,15.68-5.68C68.47,34.91,68.42,30.34,68.36,25Z"/><path class="cls-2" d="M38.59,32.17a7.8,7.8,0,0,0,3.09-1.11,13.66,13.66,0,0,1,5.85-1.85c.17,0,.35,0,.61,0A2.74,2.74,0,0,0,49,29.1a2.42,2.42,0,0,0,.92.13c2.33-.2,4.59.94,6.37,1.83a7.8,7.8,0,0,0,3.09,1.11,1.8,1.8,0,0,0,1.15-.37.92.92,0,0,0,.33-1C60.31,29,53,25.84,50.91,25.3a2.64,2.64,0,0,0-.38-.11,3.58,3.58,0,0,0-.7-.1,2.74,2.74,0,0,0-.85.13,2.88,2.88,0,0,0-.9-.13,3.62,3.62,0,0,0-.7.12l-.21.05C45,25.84,37.66,29,37.11,30.78a.93.93,0,0,0,.33,1A1.79,1.79,0,0,0,38.59,32.17Z"/><polygon class="cls-3" points="56.18 43.85 41.79 43.85 43.97 55.84 54 55.84 56.18 43.85"/><polygon class="cls-3" points="40.59 90.61 48.98 99 57.38 90.61 53.91 59.44 44.06 59.44 40.59 90.61"/></g></g></svg>