<svg xmlns="http://www.w3.org/2000/svg" viewBox="0 0 129.06 94.9"><defs><style>.cls-1{fill:#1d1d1b;}.cls-2{fill:#fff;}</style></defs><g id="Calque_2" data-name="Calque 2"><g id="Calque_2-2" data-name="Calque 2"><circle class="cls-1" cx="110.3" cy="18.82" r="17.28"/><circle class="cls-2" cx="110.3" cy="18.73" r="12.19"/><polygon class="cls-1" points="129.06 94.9 56.57 94.9 56.57 48.66 0 48.66 0 43.23 61.85 43.23 61.85 88.96 129.06 88.96 129.06 94.9"/><path class="cls-1" d="M7.21,41.33l5.24-15.67a9.15,9.15,0,0,1,1.73-3.09,6.42,6.42,0,0,1,4.66-2.35h12.5a8.49,8.49,0,0,1,5.07,1.6,7.45,7.45,0,0,1,2.69,3.79l5.19,15.72H37.48l-3-10.56H32.93l3,10.56H15.33l2.92-10.56H17l-3,10.56Z"/><circle class="cls-1" cx="25.75" cy="11.27" r="7.1"/><path class="cls-1" d="M22.06,5.52S21.5-.4,25.75,0c0,0,4.45.2,6.85,2.29a3.91,3.91,0,0,1,1,4.31A4,4,0,0,1,31.47,9Z"/><path class="cls-1" d="M103.58,13.84l5.11,5.06.73.72-.37-.88v3.33a1.25,1.25,0,0,0,2.5,0V19.5a2.72,2.72,0,0,0-.17-1.39,2.66,2.66,0,0,0-.47-.53l-4.18-4.14-1.39-1.37c-1.14-1.13-2.91.64-1.76,1.77Z"/><rect class="cls-1" x="106.88" y="34.21" width="6.06" height="56.12"/></g></g></svg>