<svg xmlns="http://www.w3.org/2000/svg" viewBox="0 0 199.17 128.45"><defs><style>.cls-1{fill:#36a9e1;stroke-width:2px;}.cls-1,.cls-2{stroke:#29235c;stroke-miterlimit:10;}.cls-2{fill:none;stroke-width:3px;}.cls-3{fill:#29235c;}.cls-4{fill:#2d2e83;}.cls-5{font-size:15.48px;fill:#f6f6f6;font-family:MyriadPro-Regular, Myriad Pro;}.cls-6{fill:#27348b;}.cls-7{fill:#3c3c3b;}</style></defs><g id="Calque_2" data-name="Calque 2"><g id="Calque_1-2" data-name="Calque 1"><polyline class="cls-1" points="114.96 15.11 188.85 15.11 188.85 122.04 64.76 122.04 64.76 27.38"/><line class="cls-2" x1="66.13" y1="33.45" x2="82.56" y2="64.93"/><rect class="cls-3" y="33.45" width="66.13" height="91.83"/><rect class="cls-4" x="29" y="53.51" width="61.66" height="71.34"/><rect class="cls-3" x="123.02" y="58.9" width="76.15" height="69.55"/><text class="cls-5" transform="translate(49.34 70.65) scale(0.95 1)">IUT</text><line class="cls-2" x1="107.59" y1="122.09" x2="107.59" y2="89.23"/><line class="cls-2" x1="85.52" y1="27.22" x2="112.33" y2="73.97"/><line class="cls-2" x1="135.7" y1="20.7" x2="161.09" y2="64.99"/><line class="cls-2" x1="111.24" y1="27" x2="132.41" y2="63.91"/><rect class="cls-6" x="90.66" y="70.82" width="34" height="18.36"/><line class="cls-2" x1="159.67" y1="15.11" x2="185.06" y2="59.39"/><path class="cls-7" d="M62.05,34.07c-1.63-12.26,27.06-26.58,64.09-32s68.35.14,70,12.4"/><line class="cls-2" x1="188.85" y1="46.87" x2="66.28" y2="46.87"/></g></g></svg>