<svg xmlns="http://www.w3.org/2000/svg" viewBox="0 0 103.38 102.18"><defs><style>.cls-1{fill:#e9e8e8;}.cls-2{fill:#be1622;}.cls-3{fill:#84b3d3;}.cls-4{fill:#010101;}</style></defs><g id="Calque_2" data-name="Calque 2"><g id="Calque_1-2" data-name="Calque 1"><rect class="cls-1" x="2.06" y="35.8" width="66.27" height="64.32"/><polygon class="cls-2" points="35.38 2.06 2.06 35.8 68.33 35.8 35.38 2.06"/><rect class="cls-3" x="22.96" y="64.43" width="24.47" height="35.69"/><rect class="cls-1" x="68.33" y="53.94" width="32.99" height="46.18"/><rect class="cls-2" x="68.33" y="35.8" width="32.99" height="18.14"/><path class="cls-4" d="M103.38,35.8a2.06,2.06,0,0,0-2.06-2.06H69.2L36.86.62A2.09,2.09,0,0,0,35.39,0h0a2.06,2.06,0,0,0-1.46.61L20.31,14.39v-7a2.06,2.06,0,0,0-4.12,0V18.56L.59,34.35h0A2.09,2.09,0,0,0,0,35.8v64.32a2.06,2.06,0,0,0,2.06,2.06h99.26a2.06,2.06,0,0,0,2.06-2.06ZM99.26,51.88H70.39v-14H99.26ZM35.38,5,63.44,33.74H7ZM66.27,98.06H49.49V64.43a2.06,2.06,0,0,0-2.06-2.06H23a2.06,2.06,0,0,0-2.06,2.06V98.06H4.12V37.86H66.27v60.2ZM25,98.06V66.49H45.37V98.06Zm74.24,0H70.39V56H99.26Z"/></g></g></svg>