<svg xmlns="http://www.w3.org/2000/svg" viewBox="0 0 125.62 279.72"><defs><style>.cls-1,.cls-3{fill:#b17f4a;}.cls-1{stroke:#b17f4a;stroke-width:2px;}.cls-1,.cls-4{stroke-miterlimit:10;}.cls-2{fill:#010101;}.cls-4{fill:none;stroke:#be1622;stroke-width:3px;}</style></defs><g id="Calque_2" data-name="Calque 2"><g id="Calque_1-2" data-name="Calque 1"><ellipse class="cls-1" cx="62.55" cy="36.06" rx="22.72" ry="24.99"/><path class="cls-2" d="M81.61,69.09c14.11,0,24.3,12,26.25,18.77L125.1,147c3.53,12.65-12.14,18-15.86,5.51L93.56,98.27H84.94L111,194.79H86.12v75.29c0,12.86-18.61,12.86-18.61,0V194.17h-9.4v75.71c0,13.06-18.61,13.06-18.61,0V194.79H14.62L40.48,98.27H31.86L16.38,152.75C12.66,164.58-3,159.69.51,147L17.75,87.86c1.77-6.73,10-18.77,24.29-18.77Z"/><path class="cls-2" d="M88.74,45.34c0-2.19-1.49-4-3.34-4A20,20,0,0,1,83.63,44a25.24,25.24,0,0,0,1-6.31c-3.87,0-9.18-2.5-14-6.83-4.18-3.77-7-8.12-8.06-11.8-1,3.67-3.88,8-8,11.8-4.8,4.34-10.1,6.79-14,6.83A24.79,24.79,0,0,0,41.48,44a20,20,0,0,1-1.77-2.61c-1.86,0-3.35,1.77-3.35,4s1.49,4,3.36,4A2.89,2.89,0,0,0,41,49a22.65,22.65,0,0,0,43.15,0,3,3,0,0,0,1.22.28C87.25,49.3,88.74,47.52,88.74,45.34Z"/><path class="cls-3" d="M62.55,6.77a52.34,52.34,0,0,0-10.2,1C52.91,3.43,57.24,0,62.55,0s9.64,3.43,10.21,7.81A51.76,51.76,0,0,0,62.55,6.77Z"/><line class="cls-4" x1="52.35" y1="7.81" x2="72.76" y2="7.81"/></g></g></svg>