<svg xmlns="http://www.w3.org/2000/svg" viewBox="0 0 100.73 207.68"><defs><style>.cls-1{fill:#009fe3;stroke:#009fe3;stroke-miterlimit:10;stroke-width:2px;}.cls-2{fill:#1d1d1b;}.cls-3{fill:#010101;}.cls-4{fill:#be1622;}</style></defs><g id="Calque_2" data-name="Calque 2"><g id="Calque_1-2" data-name="Calque 1"><path class="cls-1" d="M27.2,16.87C27.2,8.1,37.57,1,50.37,1S73.53,8.1,73.53,16.87"/><polyline class="cls-1" points="73.53 16.06 73.53 43.85 27.2 43.85 27.2 16.06"/><path class="cls-2" d="M66.82,21.75a1.49,1.49,0,0,0-1.27,0,16.41,16.41,0,0,1-7.19,1.64c-7.34,0-13.58-4.77-14.52-11.08a1.17,1.17,0,0,0-.73-.9,1.49,1.49,0,0,0-1.27,0C36.4,14.14,33,19.17,33,24.59c0,8.31,7.78,15.07,17.35,15.07S67.71,32.9,67.71,24.59a13,13,0,0,0-.15-1.94,1.18,1.18,0,0,0-.74-.9Z"/><path class="cls-3" d="M65.45,47.46c11.31,0,19.47,9.16,21,14.28l13.82,45c2.83,9.63-9.74,13.66-12.73,4.19L75,69.66H68.12L89,143.07h-20v57.27c0,9.78-14.92,9.78-14.92,0V142.61H46.59v57.58c0,9.93-14.92,9.93-14.92,0V143.07h-20L32.46,69.66H25.55L13.14,111.1c-3,9-15.56,5.28-12.73-4.35l13.83-45c1.41-5.12,8-14.28,19.47-14.28Z"/><path class="cls-4" d="M81.17,8a6.1,6.1,0,0,0-1.53-4.07A7.07,7.07,0,0,0,74.8,6.41a2,2,0,0,0-2.54,0,7.07,7.07,0,0,0-4.85-2.48,6.22,6.22,0,0,0,0,8.15,5.39,5.39,0,0,0,2.47-.64l-1.45,6.75,2-1.52,2,2,1-8.66,1,8.66,2-2,2,1.52-1.44-6.75a5.39,5.39,0,0,0,2.46.64A6.11,6.11,0,0,0,81.17,8Z"/></g></g></svg>