<svg xmlns="http://www.w3.org/2000/svg" viewBox="0 0 94.97 244.5"><defs><style>.cls-1{fill:#ca9e67;}.cls-2{fill:#010101;}.cls-3{fill:#706f6f;}</style></defs><g id="Calque_2" data-name="Calque 2"><g id="Calque_1-2" data-name="Calque 1"><path class="cls-1" d="M71,25.39c1.45-1.05,2.46-3.05,2-6.77,0,0-1-12-10.11-10.75,0,0-2.85-8-20.75-5.07a10.33,10.33,0,0,0-6-2.8,10.53,10.53,0,0,1,1.11,3.73c-2.51.15-17.89,1.74-15.2,17.66,0,0,.25,3.1,1.94,4.67v3.35a6.53,6.53,0,0,0-1.6,4.26,6.92,6.92,0,0,0,5.2,6.54c3.81,6.49,11.45,10.68,19.92,10.68s16.13-4.2,19.93-10.71a6.9,6.9,0,0,0,5.12-6.52A6.53,6.53,0,0,0,71,29.4v-4Z"/><path class="cls-2" d="M71,55H23.65C10.53,55,0,65.84,0,79.3v59.33a8.39,8.39,0,0,0,8.31,8.53,8.28,8.28,0,0,0,8.32-8.53V84.13a2.4,2.4,0,1,1,4.8,0v147.1c0,7.29,5.27,13.27,11.83,13.27s11.82-6,11.82-13.27V147.35a2.41,2.41,0,1,1,4.81,0v83.88c0,7.29,5.26,13.27,11.82,13.27s11.83-6,11.83-13.27V84.13a2.4,2.4,0,1,1,4.8,0v54.59a8.38,8.38,0,0,0,8.31,8.53A8.28,8.28,0,0,0,95,138.72V79.3C94.6,65.84,83.79,55,71,55Z"/><g id="Glasses"><path class="cls-3" d="M55.63,28.74a.54.54,0,0,0-.59.45.51.51,0,0,0,.5.53A2.29,2.29,0,0,1,58,31.9a.53.53,0,0,0,.54.42h.07a.5.5,0,0,0,.47-.55A3.31,3.31,0,0,0,55.63,28.74Z"/><path class="cls-3" d="M38.81,28.74a.54.54,0,0,0-.59.45.51.51,0,0,0,.5.53,2.28,2.28,0,0,1,2.41,2.18.53.53,0,0,0,.54.42h.08a.5.5,0,0,0,.46-.55A3.3,3.3,0,0,0,38.81,28.74Z"/><path class="cls-3" d="M64.15,30H61.44a6,6,0,0,0-5.86-3.95,6.21,6.21,0,0,0-5.44,3,3.4,3.4,0,0,0-5.94,0,6.19,6.19,0,0,0-5.44-3A6,6,0,0,0,32.91,30H30.25a.49.49,0,1,0,0,1h2.44a4.71,4.71,0,0,0,0,.53c0,3,2.74,5.46,6.1,5.46s6.11-2.45,6.11-5.46a5.28,5.28,0,0,0-.09-.9.5.5,0,0,0,.08-.2,2.32,2.32,0,0,1,4.63,0,.41.41,0,0,0,.08.19,5.5,5.5,0,0,0-.09.91c0,3,2.74,5.46,6.1,5.46s6.1-2.45,6.1-5.46a4.71,4.71,0,0,0,0-.53h2.5a.49.49,0,1,0,0-1ZM38.76,36a4.77,4.77,0,0,1-5-4.48,4.77,4.77,0,0,1,5-4.48,4.77,4.77,0,0,1,5,4.48A4.77,4.77,0,0,1,38.76,36Zm16.82,0a4.77,4.77,0,0,1-5-4.48,5,5,0,0,1,10,0A4.77,4.77,0,0,1,55.58,36Z"/></g><path class="cls-2" d="M65.3,36.27a2.39,2.39,0,0,1-1-.21,17.85,17.85,0,0,1-33.66,0,2.38,2.38,0,0,1-1,.23,2.82,2.82,0,0,1-2.62-3,2.83,2.83,0,0,1,2.62-3h.08A22.4,22.4,0,0,1,29.89,28c1.77-.5,3.76-2.47,5-5.23a14.14,14.14,0,0,0,.87-2.45,6.43,6.43,0,0,0,3.94,3.48s-.2-5.45,2.14-6.61c0,0,2.53,2.92,2.14,4.67,0,0,6-2,7.27-5.14-.3.81-.93,3,.32,4.75,0,0,1.75-3.7,3.31-4.09a17.61,17.61,0,0,0,5.49,6.15c1.29,2.4,3.11,4.07,4.74,4.5.08.83.13,1.62.13,2.29h0a2.83,2.83,0,0,1,2.62,3A2.82,2.82,0,0,1,65.3,36.27Z"/></g></g></svg>