<svg xmlns="http://www.w3.org/2000/svg" viewBox="0 0 111.45 219.68"><defs><style>.cls-1{fill:#e94e1b;stroke:#e94e1b;stroke-miterlimit:10;stroke-width:2px;}.cls-2{fill:#1d1d1b;}.cls-3{fill:#010101;}</style></defs><g id="Calque_2" data-name="Calque 2"><g id="Calque_1-2" data-name="Calque 1"><path class="cls-1" d="M30.1,17.79C30.1,8.52,41.57,1,55.73,1S81.36,8.52,81.36,17.79"/><polyline class="cls-1" points="81.36 16.94 81.36 46.34 30.1 46.34 30.1 16.94"/><path class="cls-2" d="M73.94,23a1.81,1.81,0,0,0-1.41,0,18.78,18.78,0,0,1-8,1.74c-8.12,0-15-5-16.06-11.72a1.27,1.27,0,0,0-.81-.95,1.73,1.73,0,0,0-1.41,0c-6,2.82-9.75,8.15-9.75,13.88,0,8.79,8.61,15.95,19.19,15.95S74.91,34.75,74.91,26a13.46,13.46,0,0,0-.16-2.06,1.28,1.28,0,0,0-.81-.95Z"/><path class="cls-3" d="M72.41,50.16c12.52,0,21.55,9.69,23.29,15.11L111,112.89c3.13,10.18-10.78,14.45-14.08,4.43L83,73.64H75.37l23.11,77.68H76.41v60.6c0,10.34-16.51,10.34-16.51,0V150.83H51.55v60.92c0,10.51-16.51,10.51-16.51,0V151.32H13L35.91,73.64H28.26L14.53,117.49c-3.3,9.52-17.2,5.58-14.07-4.6L15.75,65.27c1.56-5.42,8.86-15.11,21.55-15.11Z"/></g></g></svg>