<svg xmlns="http://www.w3.org/2000/svg" viewBox="0 0 98.54 278.8"><defs><style>.cls-1{fill:#432918;}.cls-2{fill:#010101;}.cls-3{fill:#706f6f;}</style></defs><g id="Calque_2" data-name="Calque 2"><g id="Calque_1-2" data-name="Calque 1"><path class="cls-1" d="M73.7,27.07c1.52-1.12,2.56-3.25,2.12-7.22,0,0-1-12.75-10.49-11.46,0,0-3-8.56-21.53-5.4a10.63,10.63,0,0,0-6.23-3,11.5,11.5,0,0,1,1.16,4C36.12,4.14,20.17,5.83,23,22.81c0,0,.26,3.3,2,5v3.56a7.06,7.06,0,0,0-1.67,4.54,7.32,7.32,0,0,0,5.41,7c3.94,6.92,11.87,11.39,20.66,11.39s16.74-4.48,20.68-11.41a7.33,7.33,0,0,0,5.32-7,7.09,7.09,0,0,0-1.67-4.55V27.07Z"/><path class="cls-2" d="M73.62,59.06H24.54C10.93,59.06,0,71.59,0,87.2V156c0,5.39,3.74,9.89,8.63,9.89s8.62-4.28,8.62-9.89V92.8A2.74,2.74,0,0,1,19.75,90a2.73,2.73,0,0,1,2.49,2.85V263.41c0,8.46,5.46,15.39,12.27,15.39s12.27-6.93,12.27-15.39V166.12a2.74,2.74,0,0,1,2.49-2.85,2.74,2.74,0,0,1,2.49,2.85v97.29c0,8.46,5.47,15.39,12.27,15.39s12.27-6.93,12.27-15.39V92.8a2.52,2.52,0,1,1,5,0v63.32c0,5.39,3.74,9.89,8.63,9.89s8.62-4.28,8.62-9.89V87.2C98.16,71.59,87,59.06,73.62,59.06Z"/><path class="cls-2" d="M67.09,38a2.17,2.17,0,0,1-1-.21,17.85,17.85,0,0,1-33.66,0,2.38,2.38,0,0,1-1,.23,2.81,2.81,0,0,1-2.62-3,2.82,2.82,0,0,1,2.62-3h.08c0-.68.05-1.48.13-2.32,1.78-.51,3.77-2.47,5.06-5.23A14.23,14.23,0,0,0,37.6,22a6.44,6.44,0,0,0,3.94,3.49s-.2-5.45,2.14-6.62c0,0,2.53,2.92,2.14,4.67,0,0,6-2,7.27-5.13-.3.81-.93,3,.32,4.74,0,0,1.75-3.7,3.31-4.09a17.73,17.73,0,0,0,5.48,6.16c1.3,2.39,3.12,4.07,4.75,4.49.08.83.12,1.62.13,2.29h0a2.82,2.82,0,0,1,2.62,3A2.82,2.82,0,0,1,67.09,38Z"/><g id="Glasses"><path class="cls-3" d="M58,30.81a.58.58,0,0,0-.61.52.57.57,0,0,0,.52.61,2.49,2.49,0,0,1,2.5,2.53A.57.57,0,0,0,61,35h.07a.57.57,0,0,0,.49-.64A3.6,3.6,0,0,0,58,30.81Z"/><path class="cls-3" d="M40.56,30.81a.58.58,0,0,0-.61.52.57.57,0,0,0,.52.61A2.49,2.49,0,0,1,43,34.47a.57.57,0,0,0,.56.49h.08a.57.57,0,0,0,.49-.64A3.61,3.61,0,0,0,40.56,30.81Z"/><path class="cls-3" d="M66.86,32.32H64.05a6.32,6.32,0,0,0-11.73-1.11,3.35,3.35,0,0,0-6.16,0,6.32,6.32,0,0,0-11.72,1.11H31.68a.57.57,0,1,0,0,1.13h2.54c0,.21,0,.41,0,.62a6.33,6.33,0,1,0,12.66,0,6,6,0,0,0-.1-1,.5.5,0,0,0,.09-.23c0-.1.36-2.47,2.4-2.47s2.39,2.37,2.4,2.47a.65.65,0,0,0,.09.23,7.19,7.19,0,0,0-.09,1,6.33,6.33,0,0,0,12.66,0c0-.21,0-.41,0-.62h2.59a.57.57,0,1,0,0-1.13ZM40.52,39.26a5.2,5.2,0,1,1,5.19-5.19A5.2,5.2,0,0,1,40.52,39.26Zm17.45,0a5.2,5.2,0,1,1,5.2-5.19A5.2,5.2,0,0,1,58,39.26Z"/></g></g></g></svg>