<svg xmlns="http://www.w3.org/2000/svg" viewBox="0 0 113 270.64"><defs><style>.cls-1{fill:#010101;}.cls-2{fill:#683c11;}.cls-3{fill:#f39200;}</style></defs><g id="Calque_2" data-name="Calque 2"><g id="Calque_1-2" data-name="Calque 1"><path class="cls-1" d="M56.06,0A22.54,22.54,0,1,1,33.53,22.53,22.57,22.57,0,0,1,56.06,0ZM84.42,50.9H28.14A28.05,28.05,0,0,0,0,79v68.81a9.85,9.85,0,0,0,9.89,9.89,9.71,9.71,0,0,0,9.9-9.89V84.64a2.86,2.86,0,0,1,5.71,0V255.25c0,8.46,6.27,15.39,14.07,15.39s14.07-6.93,14.07-15.39V158a2.86,2.86,0,0,1,5.72,0v97.29c0,8.46,6.27,15.39,14.07,15.39s14.07-6.93,14.07-15.39V84.64a2.86,2.86,0,0,1,5.72,0V148a9.84,9.84,0,0,0,9.89,9.89A9.71,9.71,0,0,0,113,148V79A28.94,28.94,0,0,0,84.42,50.9Z"/><path class="cls-2" d="M47.08,37.34a6.11,6.11,0,0,0,2.8-1.29c1.5-1,3.36-2.15,5.3-2.15l.56,0a1.85,1.85,0,0,0,.76-.16,1.76,1.76,0,0,0,.84.15c2.11-.23,4.16,1.09,5.78,2.13a6.11,6.11,0,0,0,2.8,1.29,1.38,1.38,0,0,0,1-.44,1.28,1.28,0,0,0,.3-1.18c-.49-2.12-7.11-5.73-9-6.36a1.4,1.4,0,0,0-.35-.12,3,3,0,0,0-.63-.13,2.08,2.08,0,0,0-.77.16,2.18,2.18,0,0,0-.82-.15,3.18,3.18,0,0,0-.63.13c-.1,0-.2.06-.19.07-2,.67-8.62,4.28-9.12,6.4A1.28,1.28,0,0,0,46,36.9,1.4,1.4,0,0,0,47.08,37.34Z"/><g id="Glasses"><path class="cls-3" d="M65.27,18.25a.6.6,0,0,0-.64.52.58.58,0,0,0,.55.61,2.57,2.57,0,0,1,2.64,2.53.59.59,0,0,0,.59.49h.08a.57.57,0,0,0,.52-.63A3.72,3.72,0,0,0,65.27,18.25Z"/><path class="cls-3" d="M46.86,18.25a.6.6,0,0,0-.65.52.59.59,0,0,0,.55.61,2.57,2.57,0,0,1,2.64,2.53.59.59,0,0,0,.59.49h.08a.57.57,0,0,0,.52-.63A3.71,3.71,0,0,0,46.86,18.25Z"/><path class="cls-3" d="M74.62,19.76h-3a6.64,6.64,0,0,0-6.41-4.59,6.73,6.73,0,0,0-6,3.48,3.62,3.62,0,0,0-6.5,0,6.75,6.75,0,0,0-6-3.48,6.66,6.66,0,0,0-6.42,4.59H37.48a.57.57,0,1,0,0,1.13h2.68c0,.2,0,.41,0,.61a6.69,6.69,0,0,0,13.36,0,5.91,5.91,0,0,0-.1-1,.64.64,0,0,0,.1-.24c0-.1.37-2.47,2.53-2.47s2.52,2.37,2.53,2.47a.48.48,0,0,0,.1.23,5.19,5.19,0,0,0-.1,1.05,6.69,6.69,0,0,0,13.36,0c0-.2,0-.41,0-.61h2.74a.57.57,0,1,0,0-1.13ZM46.81,26.7a5.35,5.35,0,0,1-5.48-5.2,5.49,5.49,0,0,1,11,0A5.35,5.35,0,0,1,46.81,26.7Zm18.42,0a5.35,5.35,0,0,1-5.49-5.2,5.49,5.49,0,0,1,11,0A5.35,5.35,0,0,1,65.23,26.7Z"/></g></g></g></svg>