<svg xmlns="http://www.w3.org/2000/svg" viewBox="0 0 116.01 241.91"><defs><style>.cls-1{fill:#432918;stroke:#432918;stroke-miterlimit:10;stroke-width:2px;}.cls-2{fill:#1d1d1b;}.cls-3{fill:#010101;}.cls-4{fill:#f9b233;}</style></defs><g id="Calque_2" data-name="Calque 2"><g id="Calque_1-2" data-name="Calque 1"><path class="cls-1" d="M31.33,27.75a26.68,26.68,0,1,1,53.35,0"/><polyline class="cls-1" points="84.68 26.39 84.68 73.23 31.33 73.23 31.33 26.39"/><path class="cls-2" d="M77,25.18a1.73,1.73,0,0,0-1.46,0,18.72,18.72,0,0,1-8.29,1.91c-8.45,0-15.64-5.55-16.72-12.91a1.37,1.37,0,0,0-.84-1.05,1.76,1.76,0,0,0-1.47,0C41.92,16.32,38,22.18,38,28.5c0,9.69,9,17.57,20,17.57S78,38.19,78,28.5a16.32,16.32,0,0,0-.17-2.27A1.42,1.42,0,0,0,77,25.18Z"/><path class="cls-3" d="M75.37,55.16c13,0,22.44,10.67,24.25,16.64l15.92,52.47c3.25,11.21-11.22,15.92-14.66,4.88L86.41,81h-8l24.06,85.57h-23v66.76c0,11.4-17.18,11.4-17.18,0v-67.3H53.66v67.12c0,11.58-17.18,11.58-17.18,0V166.6h-23L37.38,81h-8l-14.29,48.3c-3.44,10.5-17.91,6.15-14.66-5.06L16.39,71.8c1.63-6,9.23-16.64,22.44-16.64Z"/><g id="Glasses"><path class="cls-4" d="M66.21,28.42a.55.55,0,0,0-.56.54.57.57,0,0,0,.48.64c1.39.13,2.1.95,2.3,2.66a.56.56,0,0,0,.52.51H69a.61.61,0,0,0,.45-.67C69.2,29.83,68.1,28.59,66.21,28.42Z"/><path class="cls-4" d="M50.16,28.42a.55.55,0,0,0-.56.54.57.57,0,0,0,.48.64c1.39.13,2.1.95,2.3,2.66a.56.56,0,0,0,.52.51H53a.61.61,0,0,0,.45-.67C53.15,29.83,52.06,28.59,50.16,28.42Z"/><path class="cls-4" d="M74.35,30H71.76a6,6,0,0,0-5.59-4.81A5.81,5.81,0,0,0,61,28.84a3,3,0,0,0-5.67,0,5.8,5.8,0,0,0-5.19-3.65A6,6,0,0,0,44.53,30H42a.56.56,0,0,0-.53.59.57.57,0,0,0,.53.6h2.33c0,.21,0,.42,0,.64,0,3.66,2.61,6.65,5.82,6.65s5.83-3,5.83-6.65a8,8,0,0,0-.09-1.1.62.62,0,0,0,.08-.24c0-.11.33-2.59,2.21-2.59s2.19,2.48,2.2,2.59a.63.63,0,0,0,.09.24,6.62,6.62,0,0,0-.09,1.1c0,3.66,2.61,6.65,5.82,6.65s5.82-3,5.82-6.65c0-.22,0-.43,0-.64h2.38a.56.56,0,0,0,.52-.6A.55.55,0,0,0,74.35,30ZM50.12,37.28c-2.63,0-4.78-2.44-4.78-5.45s2.15-5.45,4.78-5.45,4.78,2.44,4.78,5.45S52.76,37.28,50.12,37.28Zm16.05,0c-2.63,0-4.78-2.44-4.78-5.45s2.15-5.45,4.78-5.45S71,28.82,71,31.83,68.81,37.28,66.17,37.28Z"/></g></g></g></svg>